PathFileType	4	(X/Y/Z)	C:/Users/opensim2020/Desktop/walking_exp_matlab/subject03_walking15_straight_02.trc	
DataRate	CameraRate	NumFrames	NumMarkers	Units	OrigDataRate	OrigDataStartFrame	OrigNumFrames	
100.00	100.00	4	47	mm	100.00	1103	149	
Frame#	Time	LFHD			RFHD			LBHD			RBHD			C7			T10			CLAV			STRN			RBAK			LSHO			LUPA			LELB			LFRM			LWRA			LWRB			LFIN			RSHO			RUPA			RELB			RFRM			RWRA			RWRB			RFIN			LASI			RASI			LPSI			RPSI			LTHI			LKNE			LTIB			LANK			LHEE			LTOE			RTHI			RKNE			RTIB			RANK			RHEE			RTOE			*39			*40			*41			*42			*43			*44			*45			*46			
		X1	Y1	Z1	X2	Y2	Z2	X3	Y3	Z3	X4	Y4	Z4	X5	Y5	Z5	X6	Y6	Z6	X7	Y7	Z7	X8	Y8	Z8	X9	Y9	Z9	X10	Y10	Z10	X11	Y11	Z11	X12	Y12	Z12	X13	Y13	Z13	X14	Y14	Z14	X15	Y15	Z15	X16	Y16	Z16	X17	Y17	Z17	X18	Y18	Z18	X19	Y19	Z19	X20	Y20	Z20	X21	Y21	Z21	X22	Y22	Z22	X23	Y23	Z23	X24	Y24	Z24	X25	Y25	Z25	X26	Y26	Z26	X27	Y27	Z27	X28	Y28	Z28	X29	Y29	Z29	X30	Y30	Z30	X31	Y31	Z31	X32	Y32	Z32	X33	Y33	Z33	X34	Y34	Z34	X35	Y35	Z35	X36	Y36	Z36	X37	Y37	Z37	X38	Y38	Z38	X39	Y39	Z39	X40	Y40	Z40	X41	Y41	Z41	X42	Y42	Z42	X43	Y43	Z43	X44	Y44	Z44	X45	Y45	Z45	X46	Y46	Z46	X47	Y47	Z47	

19	0.180	-934.93524	775.79791	1610.39441	-1067.04968	780.31708	1622.85156	-937.55042	904.86292	1568.87122	-1068.08362	903.93195	1580.33423	-1008.12726	935.92725	1412.61987	-1015.37750	981.94208	1103.30676	-1005.11975	815.68976	1334.05249	-999.94812	777.72961	1166.67847	-1111.84998	984.95648	1240.72363	-850.42688	868.55249	1372.30225	-781.27997	899.60925	1176.31824	-769.41803	903.42780	1052.85449	-768.30383	879.87628	924.87842	-797.54669	856.76733	808.46191	-750.81049	886.94421	811.88269	-757.02142	867.80109	730.76862	-1164.99634	853.38037	1362.20032	-1250.74463	836.35663	1146.26794	-1268.25562	809.96124	1037.98254	-1270.38953	769.78522	907.35791	-1233.79175	725.41064	818.82379	-1279.23547	752.38519	809.23157	-1270.45508	714.87689	745.63776	-896.90790	826.70752	934.07782	-1131.73267	820.93915	935.56805	-946.83740	988.49866	955.10022	-1095.74536	981.61548	972.20856	-845.19470	798.23676	643.52704	-873.96008	725.32623	480.18417	-887.59058	795.21002	292.74911	-939.22156	845.36407	93.38647	-984.35480	888.41797	65.01608	-949.64166	709.22949	39.90878	-1178.61072	904.15961	644.56396	-1145.17468	915.31238	465.26480	-1156.99060	984.25751	285.28784	-1114.97705	1042.82983	74.27588	-1068.07202	1091.67798	44.25476	-1095.35266	904.33057	30.90395	-976.59106	859.43970	1675.88123																					 
20	0.190	-934.45251	762.16736	1608.67957	-1066.48108	766.41656	1621.31396	-937.43378	891.14807	1566.88977	-1067.94348	889.98846	1578.65588	-1008.21820	922.04889	1410.99536	-1015.54279	968.69891	1101.68750	-1005.16998	801.81281	1332.33826	-1000.23840	764.34528	1164.70276	-1112.38049	971.00323	1239.28076	-850.40277	854.82050	1370.18433	-781.46002	887.87189	1174.32349	-769.01477	893.47717	1051.05322	-766.49200	874.09259	922.24249	-794.88098	855.36639	804.20300	-747.85858	885.10077	809.78284	-752.82355	868.76556	728.07660	-1165.08691	839.27069	1360.83862	-1251.40356	820.32031	1145.56104	-1269.24719	792.51746	1037.78772	-1270.81812	749.02869	908.22614	-1233.79578	702.16876	821.29742	-1278.85095	729.18781	810.53534	-1270.18750	689.58337	748.42072	-896.86206	812.41846	932.53540	-1132.25452	809.14642	933.73499	-946.43921	975.17834	953.01935	-1095.38354	968.89954	970.21368	-845.05347	782.48169	643.16504	-874.39709	708.82001	480.43283	-886.89929	766.79443	288.88135	-938.17737	802.68878	85.67178	-982.59552	843.41022	54.26980	-948.40570	663.28271	40.51665	-1178.49731	894.70770	643.40039	-1145.12195	908.28674	464.14569	-1157.05017	979.72809	285.20102	-1114.56018	1042.13818	75.06210	-1067.44714	1091.52014	45.76060	-1095.34802	904.13947	30.89148	-976.66095	845.71729	1673.93347																					 
21	0.200	-933.80280	748.56506	1606.85364	-1065.88184	752.51074	1619.73694	-937.24072	877.45245	1564.90332	-1067.73291	876.02734	1576.90137	-1008.24695	908.04816	1409.22363	-1015.42737	955.47107	1100.03186	-1005.18121	787.89374	1330.45190	-1000.39679	750.96161	1162.66858	-1112.74438	957.13013	1237.78479	-850.30817	841.05408	1368.00452	-781.53204	876.01349	1172.22644	-768.51782	883.52032	1049.12109	-764.81799	868.03705	919.76147	-792.39197	854.36768	800.66107	-745.02002	883.03088	807.90125	-748.94885	869.49298	725.68427	-1165.13074	825.12506	1359.44543	-1252.01453	804.40991	1144.72253	-1270.05981	775.18347	1037.43152	-1271.04883	728.62042	909.03705	-1233.48792	679.33630	823.73737	-1278.29041	706.34082	811.83734	-1269.57019	664.77466	751.24176	-897.13806	798.89478	930.84930	-1132.55969	796.38434	931.76794	-945.88226	961.66547	950.69336	-1094.91589	956.21033	967.99500	-844.78552	767.10760	642.34717	-874.93597	693.02893	480.11313	-886.18732	738.98523	285.32401	-936.25323	760.45660	79.72921	-980.23846	799.66278	46.46184	-947.08459	618.28131	41.94924	-1178.36902	885.12238	642.29352	-1145.11816	901.23999	463.15820	-1156.29871	975.97839	285.27325	-1114.27722	1041.53198	76.14137	-1067.08276	1091.32788	47.59079	-1095.11279	904.12585	30.74477	-976.92334	830.85724	1674.15491																					 
22	0.210	-933.13531	734.85583	1605.01257	-1065.19128	738.53448	1618.09961	-936.97565	863.65466	1562.82800	-1067.42737	861.96991	1575.08264	-1008.23077	894.01611	1407.53174	-1015.13110	942.18640	1098.38000	-1005.00189	773.91718	1328.58630	-1000.57098	737.51941	1160.60803	-1112.95740	943.25079	1236.27197	-850.15320	827.25262	1365.78845	-781.47919	864.03906	1170.16113	-768.01617	873.30023	1047.24609	-763.19690	861.77594	917.45959	-789.52106	852.00824	797.63202	-742.39905	880.53748	806.34418	-745.37616	869.87030	723.66632	-1165.14368	810.83997	1357.85352	-1252.56836	788.62610	1143.74866	-1270.70581	758.06738	1036.99841	-1271.01733	708.49207	909.75885	-1232.95508	657.10046	826.15356	-1277.43921	683.89960	813.11401	-1268.69653	640.34723	754.11572	-897.24591	784.71881	929.18286	-1132.87793	783.60291	929.82440	-945.17206	947.86328	948.31903	-1094.27295	943.42487	965.55408	-844.60248	752.24561	641.01715	-875.63513	677.75354	479.30881	-885.56909	712.07922	282.39288	-934.17657	719.18384	75.11407	-977.92297	755.94977	39.61561	-945.65009	574.46844	44.20277	-1178.57727	875.61139	641.39026	-1145.08691	894.14929	462.25342	-1155.76147	972.05457	285.54340	-1113.90295	1040.97852	77.54266	-1066.74548	1091.01013	49.56173	-1095.09229	903.99493	30.70794	-976.58453	817.32294	1672.45630																					 
